<svg width="56" height="24" viewBox="0 0 56 24" fill="none" xmlns="http://www.w3.org/2000/svg">
<path fill-rule="evenodd" clip-rule="evenodd" d="M56 22.2L48.9531 3H44.586L37.5274 22.2H42.5014L43.6735 18.3503H49.8887L51.0641 22.2H53.2474H56ZM44.7574 14.7903H48.8018L46.7767 8.15783L44.7574 14.7903Z" fill="#4D4D4D"/>
<path d="M36.2851 22.2V7.97778H32.0172V22.2H36.2851Z" fill="#4D4D4D"/>
<path d="M36.2852 5.13333C36.2852 6.31154 35.3259 7.26667 34.1426 7.26667C32.9593 7.26667 32 6.31154 32 5.13333C32 3.95513 32.9593 3 34.1426 3C35.3259 3 36.2852 3.95513 36.2852 5.13333Z" fill="#4D4D4D"/>
<path fill-rule="evenodd" clip-rule="evenodd" d="M8.88654 3.89712C8.77121 3.37237 8.3202 3 7.8 3C7.2798 3 6.82879 3.37237 6.71346 3.89712L6.09693 6.70189C5.81178 7.99919 4.83255 9.01219 3.57847 9.30716L0.867193 9.94496C0.35997 10.0643 0 10.5308 0 11.069C0 11.6071 0.35997 12.0737 0.867193 12.193L3.57847 12.8308C4.83255 13.1257 5.81178 14.1387 6.09693 15.4361L6.71346 18.2408C6.82879 18.7655 7.2798 19.1379 7.8 19.1379C8.3202 19.1379 8.77121 18.7655 8.88654 18.2408L9.50307 15.4361C9.78822 14.1387 10.7675 13.1257 12.0215 12.8308L14.7328 12.193C15.24 12.0737 15.6 11.6071 15.6 11.069C15.6 10.5308 15.24 10.0643 14.7328 9.94496L12.0215 9.30716C10.7675 9.01219 9.78822 7.99919 9.50307 6.70189L8.88654 3.89712Z" fill="url(#paint0_linear_340_4275)"/>
<path fill-rule="evenodd" clip-rule="evenodd" d="M17.7851 15.6555C17.723 15.3729 17.4801 15.1724 17.2 15.1724C16.9199 15.1724 16.677 15.3729 16.6149 15.6555L16.283 17.1657C16.1294 17.8643 15.6021 18.4097 14.9269 18.5686L13.467 18.912C13.1938 18.9762 13 19.2275 13 19.5172C13 19.807 13.1938 20.0582 13.467 20.1225L14.9269 20.4659C15.6021 20.6247 16.1294 21.1702 16.283 21.8688L16.6149 23.379C16.677 23.6616 16.9199 23.8621 17.2 23.8621C17.4801 23.8621 17.723 23.6616 17.7851 23.379L18.117 21.8688C18.2706 21.1702 18.7979 20.6247 19.4731 20.4659L20.9331 20.1225C21.2062 20.0582 21.4 19.807 21.4 19.5172C21.4 19.2275 21.2062 18.9762 20.9331 18.912L19.4731 18.5686C18.7979 18.4097 18.2706 17.8643 18.117 17.1657L17.7851 15.6555Z" fill="url(#paint1_linear_340_4275)"/>
<path fill-rule="evenodd" clip-rule="evenodd" d="M20.3851 0.483064C20.323 0.200504 20.0801 0 19.8 0C19.5199 0 19.277 0.200504 19.2149 0.483064L18.883 1.99333C18.7294 2.69187 18.2021 3.23733 17.5269 3.39617L16.0669 3.73959C15.7938 3.80383 15.6 4.05506 15.6 4.34483C15.6 4.6346 15.7938 4.88582 16.0669 4.95006L17.5269 5.29349C18.2021 5.45232 18.7294 5.99779 18.883 6.69634L19.2149 8.2066C19.277 8.48914 19.5199 8.68966 19.8 8.68966C20.0801 8.68966 20.323 8.48914 20.3851 8.2066L20.717 6.69634C20.8706 5.99779 21.3979 5.45232 22.0731 5.29349L23.5331 4.95006C23.8062 4.88582 24 4.6346 24 4.34483C24 4.05506 23.8062 3.80383 23.5331 3.73959L22.0731 3.39617C21.3979 3.23733 20.8706 2.69187 20.717 1.99333L20.3851 0.483064Z" fill="url(#paint2_linear_340_4275)"/>
<defs>
<linearGradient id="paint0_linear_340_4275" x1="8" y1="23.4828" x2="18.1313" y2="3.89552" gradientUnits="userSpaceOnUse">
<stop offset="0.31" stop-color="#1771B6"/>
<stop offset="1" stop-color="#20A420"/>
</linearGradient>
<linearGradient id="paint1_linear_340_4275" x1="8" y1="23.4828" x2="18.1313" y2="3.89552" gradientUnits="userSpaceOnUse">
<stop offset="0.31" stop-color="#1771B6"/>
<stop offset="1" stop-color="#20A420"/>
</linearGradient>
<linearGradient id="paint2_linear_340_4275" x1="8" y1="23.4828" x2="18.1313" y2="3.89552" gradientUnits="userSpaceOnUse">
<stop offset="0.31" stop-color="#1771B6"/>
<stop offset="1" stop-color="#20A420"/>
</linearGradient>
</defs>
</svg>
