<svg width="20" height="20" viewBox="0 0 20 20" fill="none" xmlns="http://www.w3.org/2000/svg">
<path d="M11.7339 5.20122L12.7117 4.24673C12.7814 4.17881 12.8307 4.09272 12.854 3.9982C12.8773 3.90368 12.8738 3.80451 12.8437 3.71192C12.8137 3.61932 12.7584 3.53699 12.684 3.47424C12.6097 3.41149 12.5193 3.37084 12.4231 3.35687L11.0714 3.16029L10.4672 1.93369C10.4192 1.85236 10.3509 1.78495 10.269 1.73813C10.187 1.6913 10.0943 1.66667 10 1.66667C9.90567 1.66667 9.81297 1.6913 9.73104 1.73813C9.64911 1.78495 9.58079 1.85236 9.53281 1.93369L8.92865 3.16024L7.57698 3.35682C7.48076 3.37078 7.39037 3.41144 7.31603 3.47419C7.24169 3.53693 7.18637 3.61927 7.15634 3.71186C7.1263 3.80446 7.12275 3.90363 7.14607 3.99815C7.1694 4.09267 7.21868 4.17876 7.28834 4.24668L8.26615 5.20117L8.03521 6.54939C8.01876 6.64533 8.02945 6.74397 8.06607 6.83414C8.10269 6.92432 8.16378 7.00243 8.24242 7.05964C8.32107 7.11685 8.41413 7.15088 8.51109 7.15788C8.60804 7.16488 8.70502 7.14457 8.79104 7.09924L10 6.4626L11.209 7.09929C11.295 7.14462 11.392 7.16493 11.489 7.15793C11.5859 7.15093 11.679 7.1169 11.7576 7.05969C11.8363 7.00248 11.8974 6.92437 11.934 6.8342C11.9706 6.74402 11.9813 6.64539 11.9648 6.54945L11.7339 5.20122Z" fill="#1771B6"/>
<path d="M18.308 5.25368C18.2779 5.1611 18.2226 5.07879 18.1482 5.01605C18.0739 4.95331 17.9835 4.91264 17.8873 4.89864L16.5359 4.70201L15.9311 3.47552C15.8832 3.39414 15.8149 3.32669 15.733 3.27982C15.6511 3.23296 15.5584 3.20831 15.4641 3.20831C15.3697 3.20831 15.277 3.23296 15.1951 3.27982C15.1132 3.32669 15.0449 3.39414 14.997 3.47552L14.3929 4.70201L13.0415 4.89864C12.9453 4.91261 12.8549 4.95324 12.7806 5.01595C12.7063 5.07867 12.6509 5.16096 12.6209 5.25351C12.5908 5.34607 12.5872 5.4452 12.6105 5.5397C12.6338 5.6342 12.683 5.72029 12.7525 5.78825L13.7306 6.74273L13.4997 8.09101C13.4832 8.18693 13.4939 8.28556 13.5305 8.37574C13.567 8.46591 13.6281 8.54404 13.7067 8.60127C13.7853 8.65851 13.8784 8.69257 13.9753 8.69962C14.0722 8.70666 14.1692 8.68639 14.2553 8.64112L15.464 8.00479L16.673 8.64112C16.759 8.68644 16.856 8.70676 16.953 8.69976C17.0499 8.69276 17.143 8.65873 17.2216 8.60152C17.3003 8.5443 17.3614 8.46619 17.398 8.37602C17.4346 8.28585 17.4453 8.18721 17.4288 8.09127L17.198 6.74299L18.1758 5.78851C18.2455 5.7206 18.2948 5.63451 18.3182 5.53999C18.3415 5.44547 18.338 5.34629 18.308 5.25368Z" fill="#1771B6"/>
<path d="M6.95864 4.89871L5.60723 4.70208L5.00307 3.47559C4.96006 3.38831 4.89352 3.31483 4.81098 3.26344C4.72844 3.21206 4.6332 3.18483 4.53601 3.18483C4.43882 3.18483 4.34357 3.21206 4.26103 3.26344C4.1785 3.31483 4.11196 3.38831 4.06895 3.47559L3.46416 4.70208L2.1127 4.89871C2.01649 4.91269 1.92611 4.95335 1.85178 5.01609C1.77745 5.07883 1.72214 5.16115 1.69211 5.25374C1.66207 5.34633 1.65851 5.44549 1.68183 5.54C1.70515 5.63451 1.75442 5.7206 1.82406 5.78852L2.80208 6.74306L2.57114 8.09134C2.55469 8.18728 2.56538 8.28592 2.602 8.37609C2.63862 8.46626 2.69971 8.54437 2.77835 8.60159C2.857 8.6588 2.95006 8.69283 3.04702 8.69983C3.14397 8.70683 3.24095 8.68651 3.32697 8.64119L4.53598 8.00486L5.74473 8.64119C5.83076 8.68651 5.92773 8.70683 6.02469 8.69983C6.12164 8.69283 6.21471 8.6588 6.29335 8.60159C6.372 8.54437 6.43308 8.46626 6.4697 8.37609C6.50632 8.28592 6.51701 8.18728 6.50057 8.09134L6.26963 6.74306L7.2477 5.78858C7.31728 5.72063 7.36649 5.63453 7.38976 5.54003C7.41303 5.44554 7.40943 5.3464 7.37937 5.25384C7.34932 5.16129 7.294 5.079 7.21967 5.01629C7.14535 4.95357 7.05482 4.91268 6.95864 4.89871Z" fill="#1771B6"/>
<path d="M15.2083 9.46654H4.79163C4.37736 9.46699 3.9802 9.63199 3.68727 9.92534C3.39435 10.2187 3.22958 10.6164 3.22913 11.0313V15.2039C3.22958 15.6187 3.39435 16.0165 3.68727 16.3098C3.9802 16.6032 4.37736 16.7682 4.79163 16.7686H8.22178L9.63173 18.1805C9.68008 18.229 9.73748 18.2674 9.80066 18.2936C9.86384 18.3199 9.93157 18.3334 9.99996 18.3334C10.0684 18.3334 10.1361 18.3199 10.1993 18.2936C10.2624 18.2674 10.3198 18.229 10.3682 18.1805L11.7781 16.7686H15.2083C15.6226 16.7682 16.0197 16.6032 16.3126 16.3098C16.6056 16.0165 16.7703 15.6187 16.7708 15.2039V11.0313C16.7703 10.6164 16.6056 10.2187 16.3126 9.92534C16.0197 9.63199 15.6226 9.46699 15.2083 9.46654ZM14.1666 14.6823H5.83329C5.69516 14.6823 5.56268 14.6274 5.46501 14.5295C5.36733 14.4317 5.31246 14.2991 5.31246 14.1607C5.31246 14.0224 5.36733 13.8897 5.46501 13.7919C5.56268 13.6941 5.69516 13.6392 5.83329 13.6392H14.1666C14.3048 13.6392 14.4372 13.6941 14.5349 13.7919C14.6326 13.8897 14.6875 14.0224 14.6875 14.1607C14.6875 14.2991 14.6326 14.4317 14.5349 14.5295C14.4372 14.6274 14.3048 14.6823 14.1666 14.6823ZM14.1666 12.596H5.83329C5.69516 12.596 5.56268 12.5411 5.46501 12.4432C5.36733 12.3454 5.31246 12.2128 5.31246 12.0744C5.31246 11.9361 5.36733 11.8034 5.46501 11.7056C5.56268 11.6078 5.69516 11.5528 5.83329 11.5528H14.1666C14.3048 11.5528 14.4372 11.6078 14.5349 11.7056C14.6326 11.8034 14.6875 11.9361 14.6875 12.0744C14.6875 12.2128 14.6326 12.3454 14.5349 12.4432C14.4372 12.5411 14.3048 12.596 14.1666 12.596Z" fill="#1771B6"/>
</svg>
