<svg width="24" height="24" viewBox="0 0 24 24" fill="none" xmlns="http://www.w3.org/2000/svg">
<path d="M14.3528 17.8873C14.461 17.9961 14.5374 18.1323 14.5738 18.2813C14.6102 18.4303 14.6053 18.5864 14.5595 18.7328C14.5137 18.8792 14.4288 19.0103 14.3139 19.1119C14.1991 19.2136 14.0587 19.2819 13.9079 19.3096H13.8879C13.7546 19.3325 13.6177 19.323 13.4889 19.2817C13.3601 19.2404 13.2431 19.1687 13.148 19.0726L3.84883 9.77071C3.70353 9.62593 3.61628 9.43294 3.60357 9.22819C3.59086 9.02344 3.65356 8.82113 3.77983 8.65948L3.79083 8.64648C3.86444 8.55343 3.95689 8.47701 4.06213 8.42224C4.16736 8.36747 4.28298 8.33559 4.4014 8.3287C4.51983 8.3218 4.63837 8.34005 4.74924 8.38223C4.86011 8.42442 4.96081 8.48959 5.04471 8.57347L14.3528 17.8873ZM2.43996 10.7229C2.32097 10.9499 2.22298 11.151 2.14798 11.313C2.05046 11.5275 2 11.7605 2 11.9962C2 12.2318 2.05046 12.4648 2.14798 12.6793C2.18198 12.7553 2.22598 12.8453 2.26997 12.9363L7.19951 17.8653C7.84773 18.5189 8.66411 18.9804 9.55829 19.1986C9.63029 19.2156 9.70228 19.2316 9.77527 19.2476C9.87105 19.2702 9.97155 19.261 10.0617 19.2215C10.1518 19.1819 10.2266 19.1142 10.2749 19.0284C10.3232 18.9427 10.3423 18.8435 10.3294 18.746C10.3164 18.6484 10.2722 18.5577 10.2032 18.4874L2.43996 10.7229ZM21.7502 20.5729C21.8285 20.65 21.8909 20.7419 21.9336 20.8432C21.9763 20.9446 21.9985 21.0534 21.999 21.1634C21.9994 21.2734 21.9781 21.3824 21.9362 21.4841C21.8944 21.5858 21.8328 21.6782 21.755 21.756C21.6773 21.8337 21.5849 21.8953 21.4832 21.9372C21.3815 21.9791 21.2726 22.0004 21.1626 22C21.0527 21.9995 20.9439 21.9773 20.8426 21.9346C20.7412 21.8919 20.6494 21.8295 20.5723 21.7511L2.24397 3.41744C2.0899 3.26075 2.00395 3.04952 2.00485 2.82974C2.00576 2.60996 2.09344 2.39944 2.2488 2.24403C2.40417 2.08862 2.61462 2.00091 2.83434 2.00001C3.05406 1.9991 3.26523 2.08508 3.42187 2.2392L6.97753 5.79591C8.50949 4.93213 10.2405 4.4839 11.9991 4.49565C13.9194 4.53637 15.7958 5.07785 17.4427 6.06653C19.0896 7.05522 20.45 8.45685 21.3892 10.1328C21.7885 10.7789 22 11.5236 22 12.2832C22 13.0429 21.7885 13.7875 21.3892 14.4336C20.673 15.6064 19.7799 16.6614 18.7414 17.5613L21.7522 20.5729H21.7502ZM9.09934 7.92134L10.2992 9.12158C10.9354 8.74675 11.6781 8.59396 12.4106 8.68718C13.143 8.78041 13.8238 9.11439 14.3459 9.63664C14.868 10.1589 15.2019 10.8398 15.2951 11.5725C15.3883 12.3052 15.2355 13.0481 14.8608 13.6845L16.0607 14.8847C16.7323 13.9216 17.0436 12.7528 16.9402 11.5831C16.8368 10.4134 16.3252 9.31746 15.4951 8.48719C14.6649 7.65693 13.5692 7.14534 12.3998 7.04206C11.2305 6.93879 10.0621 7.24941 9.09934 7.92134Z" fill="black" fill-opacity="0.56"/>
</svg>
