<svg width="20" height="20" viewBox="0 0 20 20" fill="none" xmlns="http://www.w3.org/2000/svg">
<path d="M10.0001 1.66669L12.9989 2.85514L10.0002 4.09907L7.01082 2.85145L10.0001 1.66669Z" fill="black" fill-opacity="0.56"/>
<path d="M10.9812 4.50853L14.0052 3.25401L17.6829 4.71151L14.4947 5.97508L10.9812 4.50853Z" fill="black" fill-opacity="0.56"/>
<path d="M9.99949 4.91579L6.49782 6.36829L10.0001 7.75639L13.4908 6.37293L9.99949 4.91579Z" fill="black" fill-opacity="0.56"/>
<path d="M6.0133 3.25221L6.01654 3.25361L9.01833 4.50647L5.49118 5.96969L2.31702 4.71171L6.0069 3.24933C6.00896 3.25036 6.01113 3.25129 6.0133 3.25221Z" fill="black" fill-opacity="0.56"/>
<path d="M1.66669 15.1787L4.98157 16.4924V11.9496L1.66669 10.6287V15.1787Z" fill="black" fill-opacity="0.56"/>
<path d="M9.62691 18.3334L5.72786 16.7883V12.2471L9.62691 13.8008V18.3334Z" fill="black" fill-opacity="0.56"/>
<path d="M5.72786 11.4353L9.62691 12.989V8.42006L5.72786 6.87482V11.4353Z" fill="black" fill-opacity="0.56"/>
<path d="M4.98157 11.1377L1.66669 9.81666V5.26512L4.98157 6.57893V11.1377Z" fill="black" fill-opacity="0.56"/>
<path d="M10.3731 18.3334L14.2198 16.809V12.2679L10.3731 13.8007V18.3334Z" fill="black" fill-opacity="0.56"/>
<path d="M18.3333 15.1787L14.966 16.5132V11.9705L18.3333 10.6287V15.1787Z" fill="black" fill-opacity="0.56"/>
<path d="M14.966 6.59964V11.1586L18.3333 9.81666V5.26512L14.966 6.59964Z" fill="black" fill-opacity="0.56"/>
<path d="M14.2198 11.456L10.3731 12.9888V8.41989L14.2198 6.89537V11.456Z" fill="black" fill-opacity="0.56"/>
</svg>
