<svg width="21" height="20" viewBox="0 0 21 20" fill="none" xmlns="http://www.w3.org/2000/svg">
<path d="M3.28984 2.64325H3.63645V6.06122C3.63645 6.33088 3.85507 6.5495 4.12473 6.5495C4.39439 6.5495 4.61301 6.33088 4.61301 6.06122V2.15497C4.61301 1.88531 4.39439 1.66669 4.12473 1.66669H3.28984C3.02018 1.66669 2.80156 1.88531 2.80156 2.15497C2.80156 2.42463 3.02018 2.64325 3.28984 2.64325Z" fill="black" fill-opacity="0.56"/>
<path d="M4.75986 11.4556C4.75777 11.4556 4.75569 11.4556 4.75361 11.4556C4.40719 11.46 4.04117 11.463 3.72437 11.4641C3.9316 11.1853 4.20865 10.8046 4.57118 10.2867C4.82001 9.93114 4.98248 9.59423 5.05409 9.28527C5.06669 9.21692 5.08355 9.09615 5.08567 9.02681C5.08567 8.21701 4.42685 7.55819 3.61702 7.55819C2.91679 7.55819 2.31074 8.05637 2.17594 8.74273C2.12395 9.00734 2.29635 9.26402 2.56096 9.31594C2.82558 9.36786 3.08225 9.19556 3.13417 8.93091C3.17926 8.70136 3.38232 8.53475 3.61699 8.53475C3.87965 8.53475 4.09495 8.74159 4.10842 9.00096C4.07903 9.2439 3.95836 9.44602 3.77109 9.72678C3.16487 10.593 2.80318 11.0666 2.60885 11.321C2.36487 11.6404 2.24241 11.8008 2.32463 12.0681C2.37333 12.2264 2.49303 12.3478 2.65302 12.4011C2.71738 12.4225 2.77538 12.4419 3.53014 12.4419C3.82324 12.4419 4.22144 12.439 4.76591 12.4321C5.03554 12.4287 5.25139 12.2074 5.24804 11.9377C5.24462 11.6702 5.02665 11.4556 4.75986 11.4556Z" fill="black" fill-opacity="0.56"/>
<path d="M3.70728 13.4505C3.00885 13.4505 2.40439 13.9474 2.26995 14.632C2.21796 14.8967 2.39036 15.1533 2.65497 15.2052C2.91952 15.257 3.17623 15.0848 3.22818 14.8202C3.27291 14.5924 3.47441 14.4271 3.70728 14.4271C3.97652 14.4271 4.19557 14.6461 4.19557 14.9154C4.19557 15.1846 3.97652 15.4037 3.70728 15.4037C3.43762 15.4037 3.219 15.6223 3.219 15.8919C3.219 16.1616 3.43762 16.3802 3.70728 16.3802C3.97652 16.3802 4.19557 16.5993 4.19557 16.8685C4.19557 17.1377 3.97652 17.3568 3.70728 17.3568C3.465 17.3568 3.25712 17.1764 3.22376 16.9374C3.2206 16.9148 3.219 16.8916 3.219 16.8685C3.219 16.5988 3.00038 16.3802 2.73072 16.3802C2.46106 16.3802 2.24244 16.5988 2.24244 16.8685C2.24244 16.9365 2.24719 17.005 2.25654 17.0722C2.35689 17.7912 2.98059 18.3334 3.70728 18.3334C4.515 18.3334 5.17213 17.6762 5.17213 16.8685C5.17213 16.4936 5.03043 16.1513 4.79794 15.8919C5.0304 15.6326 5.17213 15.2903 5.17213 14.9154C5.17213 14.1077 4.51503 13.4505 3.70728 13.4505Z" fill="black" fill-opacity="0.56"/>
<path d="M18.345 7.55861H7.65497C7.38531 7.55861 7.16669 7.77723 7.16669 8.0469V8.77932L6.05992 9.6094C5.93697 9.70162 5.8646 9.84631 5.8646 10C5.8646 10.1537 5.93697 10.2984 6.05992 10.3906L7.16669 11.2207V11.9531C7.16669 12.2228 7.38531 12.4414 7.65497 12.4414H18.345C18.6147 12.4414 18.8333 12.2228 18.8333 11.9531V8.0469C18.8333 7.77723 18.6147 7.55861 18.345 7.55861ZM16.3919 10.4883H9.51968C9.25002 10.4883 9.0314 10.2697 9.0314 10C9.0314 9.73036 9.25002 9.51174 9.51968 9.51174H16.3919C16.6616 9.51174 16.8802 9.73036 16.8802 10C16.8802 10.2697 16.6616 10.4883 16.3919 10.4883Z" fill="black" fill-opacity="0.56"/>
<path d="M18.345 1.66669H7.65497C7.38531 1.66669 7.16669 1.88531 7.16669 2.15497V2.88739L6.05992 3.71747C5.93697 3.80969 5.8646 3.95438 5.8646 4.10809C5.8646 4.2618 5.93697 4.4065 6.05992 4.49872L7.16669 5.3288V6.06122C7.16669 6.33088 7.38531 6.5495 7.65497 6.5495H18.345C18.6147 6.5495 18.8333 6.33088 18.8333 6.06122V2.15497C18.8333 1.88531 18.6147 1.66669 18.345 1.66669ZM16.3919 4.59637H9.51968C9.25002 4.59637 9.0314 4.37775 9.0314 4.10809C9.0314 3.83843 9.25002 3.61981 9.51968 3.61981H16.3919C16.6616 3.61981 16.8802 3.83843 16.8802 4.10809C16.8802 4.37775 16.6616 4.59637 16.3919 4.59637Z" fill="black" fill-opacity="0.56"/>
<path d="M18.345 13.4505H7.65497C7.38531 13.4505 7.16669 13.6692 7.16669 13.9388V14.6712L6.05992 15.5013C5.93697 15.5935 5.8646 15.7382 5.8646 15.8919C5.8646 16.0457 5.93697 16.1904 6.05992 16.2826L7.16669 17.1127V17.8451C7.16669 18.1147 7.38531 18.3334 7.65497 18.3334H18.345C18.6147 18.3334 18.8333 18.1147 18.8333 17.8451V13.9388C18.8333 13.6692 18.6147 13.4505 18.345 13.4505ZM16.3919 16.3802H9.51968C9.25002 16.3802 9.0314 16.1616 9.0314 15.8919C9.0314 15.6223 9.25002 15.4037 9.51968 15.4037H16.3919C16.6616 15.4037 16.8802 15.6223 16.8802 15.8919C16.8802 16.1616 16.6616 16.3802 16.3919 16.3802Z" fill="black" fill-opacity="0.56"/>
</svg>
