<svg width="21" height="20" viewBox="0 0 21 20" fill="none" xmlns="http://www.w3.org/2000/svg">
<path d="M3.16092 6.10621C3.0566 6.35952 3 6.6307 3 6.9138V13.1064C3 13.8722 3.41421 14.5874 4.07579 14.9689L9.43988 18.0651C9.68424 18.2082 9.94649 18.2946 10.2177 18.3333V10.0041C10.0498 10.2468 3.4869 6.23897 3.16092 6.10621Z" fill="black" fill-opacity="0.56"/>
<path d="M16.9556 5.05128L11.5915 1.955C10.9269 1.57058 10.1044 1.57058 9.43988 1.955L4.07579 5.05128C3.83441 5.19133 3.6258 5.37313 3.45892 5.58768L9.75576 9.22633C10.2266 9.4975 10.8137 9.50347 11.2875 9.24122L16.0884 6.57408C16.2344 6.49363 16.4162 6.54428 16.4936 6.68732C16.5741 6.83334 16.5234 7.01514 16.3804 7.0926L11.5795 9.75975C11.3382 9.89386 11.0789 9.97731 10.8137 10.0101V18.3334C11.0848 18.2946 11.3471 18.2082 11.5915 18.0651L16.9555 14.9689C17.6171 14.5874 18.0313 13.8722 18.0313 13.1064V6.91381C18.0313 6.14794 17.6171 5.43273 16.9556 5.05128Z" fill="black" fill-opacity="0.56"/>
</svg>
