<svg width="20" height="20" viewBox="0 0 20 20" fill="none" xmlns="http://www.w3.org/2000/svg">
<path fill-rule="evenodd" clip-rule="evenodd" d="M4.7217 18.3334H15.2783C16.9625 18.3334 18.3334 16.9983 18.3334 15.3579V4.64216C18.3334 3.00179 16.9625 1.66669 15.2783 1.66669H4.7217C3.03753 1.66669 1.66669 3.00179 1.66669 4.64216V15.3579C1.66669 16.9983 3.03753 18.3334 4.7217 18.3334ZM5.06776 7.42533H6.66874C7.03784 7.42533 7.33706 7.13389 7.33712 6.7744C7.33712 6.41491 7.0379 6.12347 6.6688 6.12347H5.06776C4.69866 6.12347 4.39943 6.41491 4.39943 6.7744C4.39943 7.13389 4.69866 7.42533 5.06776 7.42533ZM9.29018 7.42533H14.9323C15.3014 7.42533 15.6007 7.13389 15.6007 6.7744C15.6007 6.41491 15.3014 6.12347 14.9323 6.12347H9.29018C8.92108 6.12347 8.62185 6.41491 8.62185 6.7744C8.62185 7.13389 8.92108 7.42533 9.29018 7.42533ZM6.66874 10.651H5.06776C4.69866 10.651 4.39943 10.3596 4.39943 10.0001C4.39943 9.64059 4.69866 9.34915 5.06776 9.34915H6.6688C7.0379 9.34915 7.33712 9.64059 7.33712 10.0001C7.33712 10.3596 7.03784 10.651 6.66874 10.651ZM9.29018 10.651H14.9323C15.3014 10.651 15.6007 10.3596 15.6007 10.0001C15.6007 9.64062 15.3014 9.34918 14.9323 9.34918H9.29018C8.92108 9.34918 8.62185 9.64062 8.62185 10.0001C8.62185 10.3596 8.92108 10.651 9.29018 10.651ZM6.66874 13.8767H5.06776C4.69866 13.8767 4.39943 13.5853 4.39943 13.2258C4.39943 12.8663 4.69866 12.5749 5.06776 12.5749H6.6688C7.0379 12.5749 7.33712 12.8663 7.33712 13.2258C7.33712 13.5853 7.03784 13.8767 6.66874 13.8767ZM9.29018 13.8767H14.9323C15.3014 13.8767 15.6007 13.5853 15.6007 13.2258C15.6007 12.8663 15.3014 12.5749 14.9323 12.5749H9.29018C8.92108 12.5749 8.62185 12.8663 8.62185 13.2258C8.62185 13.5853 8.92108 13.8767 9.29018 13.8767Z" fill="black" fill-opacity="0.56"/>
</svg>
