<svg width="20" height="20" viewBox="0 0 20 20" fill="none" xmlns="http://www.w3.org/2000/svg">
<path d="M15.9999 4.44419H13.9335C13.7788 3.66053 13.3694 2.9564 12.7744 2.45047C12.1794 1.94453 11.4352 1.66772 10.6672 1.66669L9.33359 1.66669C8.56555 1.66772 7.82132 1.94453 7.22634 2.45047C6.63136 2.9564 6.22201 3.66053 6.06726 4.44419H4.0001C3.82326 4.44419 3.65366 4.51737 3.52861 4.64763C3.40356 4.77789 3.33331 4.95456 3.33331 5.13877C3.33331 5.32299 3.40356 5.49966 3.52861 5.62992C3.65366 5.76017 3.82326 5.83335 4.0001 5.83335H4.66649V14.8609C4.66754 15.7815 5.01909 16.6641 5.64402 17.3151C6.26895 17.966 7.11624 18.3323 8.00002 18.3334H11.9999C12.8837 18.3323 13.731 17.966 14.3559 17.3151C14.9809 16.6641 15.3324 15.7815 15.3335 14.8609V5.83335H15.9999C16.1767 5.83335 16.3463 5.76017 16.4713 5.62992C16.5964 5.49966 16.6666 5.32299 16.6666 5.13877C16.6666 4.95456 16.5964 4.77789 16.4713 4.64763C16.3463 4.51737 16.1767 4.44419 15.9999 4.44419ZM9.33359 13.4725C9.33359 13.6567 9.26334 13.8334 9.1383 13.9637C9.01325 14.0939 8.84365 14.1671 8.66681 14.1671C8.48996 14.1671 8.32036 14.0939 8.19532 13.9637C8.07027 13.8334 8.00002 13.6567 8.00002 13.4725V9.30585C8.00002 9.12164 8.07027 8.94497 8.19532 8.81471C8.32036 8.68445 8.48996 8.61127 8.66681 8.61127C8.84365 8.61127 9.01325 8.68445 9.1383 8.81471C9.26334 8.94497 9.33359 9.12164 9.33359 9.30585V13.4725ZM11.9999 13.4725C11.9999 13.6567 11.9297 13.8334 11.8046 13.9637C11.6796 14.0939 11.51 14.1671 11.3332 14.1671C11.1563 14.1671 10.9867 14.0939 10.8617 13.9637C10.7366 13.8334 10.6664 13.6567 10.6664 13.4725V9.30585C10.6664 9.12164 10.7366 8.94497 10.8617 8.81471C10.9867 8.68445 11.1563 8.61127 11.3332 8.61127C11.51 8.61127 11.6796 8.68445 11.8046 8.81471C11.9297 8.94497 11.9999 9.12164 11.9999 9.30585V13.4725ZM7.44803 4.44419C7.5864 4.03816 7.84198 3.68668 8.17971 3.43796C8.51744 3.18924 8.92078 3.05548 9.33439 3.05502H10.668C11.0816 3.05548 11.4849 3.18924 11.8226 3.43796C12.1604 3.68668 12.416 4.03816 12.5543 4.44419H7.44803Z" fill="black" fill-opacity="0.56"/>
</svg>
