<svg width="20" height="20" viewBox="0 0 20 20" fill="none" xmlns="http://www.w3.org/2000/svg">
<path d="M5.58116 11.7209C5.32735 11.4671 4.91618 11.4671 4.66237 11.7209C4.40857 11.9747 4.40857 12.3859 4.66237 12.6397L4.85273 12.83H3.17251V10.231H1.87301V13.4798C1.87301 13.8386 2.16362 14.1295 2.52276 14.1295H4.85273L4.66237 14.3199C4.40857 14.5737 4.40857 14.9849 4.66237 15.2387C4.78928 15.3656 4.95552 15.429 5.12177 15.429C5.28801 15.429 5.45426 15.3656 5.58116 15.2387L6.88067 13.9392C7.13448 13.6854 7.13448 13.2742 6.88067 13.0204L5.58116 11.7209Z" fill="black" fill-opacity="0.56"/>
<path d="M2.17431 5.18192H2.53465V8.73525C2.53465 9.01559 2.76192 9.24287 3.04227 9.24287C3.32261 9.24287 3.54988 9.01559 3.54988 8.73525V4.67431C3.54988 4.39396 3.32261 4.16669 3.04227 4.16669H2.17431C1.89396 4.16669 1.66669 4.39396 1.66669 4.67431C1.66669 4.95465 1.89396 5.18192 2.17431 5.18192Z" fill="black" fill-opacity="0.56"/>
<path d="M17.8257 10.2919H10.6108C10.3305 10.2919 10.1032 10.5192 10.1032 10.7996V11.561L8.9526 12.4239C8.82478 12.5198 8.74955 12.6702 8.74955 12.83C8.74955 12.9898 8.82478 13.1403 8.9526 13.2361L10.1032 14.0991V14.8605C10.1032 15.1409 10.3305 15.3681 10.6108 15.3681H17.8257C18.1061 15.3681 18.3334 15.1409 18.3334 14.8605V10.7996C18.3334 10.5192 18.1061 10.2919 17.8257 10.2919ZM15.7953 13.3377H12.5494C12.269 13.3377 12.0418 13.1104 12.0418 12.83C12.0418 12.5497 12.269 12.3224 12.5494 12.3224H15.7953C16.0756 12.3224 16.3029 12.5497 16.3029 12.83C16.3029 13.1104 16.0756 13.3377 15.7953 13.3377Z" fill="black" fill-opacity="0.56"/>
<path d="M17.8257 4.16669H6.71231C6.43197 4.16669 6.20469 4.39396 6.20469 4.67431V5.43573L5.05409 6.29868C4.92627 6.39456 4.85104 6.54498 4.85104 6.70478C4.85104 6.86458 4.92627 7.015 5.05409 7.11087L6.20469 7.97383V8.73525C6.20469 9.01559 6.43197 9.24287 6.71231 9.24287H17.8257C18.1061 9.24287 18.3334 9.01559 18.3334 8.73525V4.67431C18.3334 4.39396 18.1061 4.16669 17.8257 4.16669ZM15.7953 7.2124H8.65087C8.37053 7.2124 8.14325 6.98512 8.14325 6.70478C8.14325 6.42444 8.37053 6.19716 8.65087 6.19716H15.7953C16.0756 6.19716 16.3029 6.42444 16.3029 6.70478C16.3029 6.98512 16.0756 7.2124 15.7953 7.2124Z" fill="black" fill-opacity="0.56"/>
</svg>
