<svg width="24" height="24" viewBox="0 0 24 24" fill="none" xmlns="http://www.w3.org/2000/svg">
<g clip-path="url(#clip0_4511_2829)">
<circle cx="12" cy="12" r="12" fill="#808080"/>
<path fill-rule="evenodd" clip-rule="evenodd" d="M12.0312 6.89987L10.5093 9.53222L8.73222 6.49998C8.52175 6.19117 8.57532 5.87891 8.95455 5.86667H11.4315L12.0312 6.89948V6.89987Z" fill="white"/>
<path fill-rule="evenodd" clip-rule="evenodd" d="M15.3413 6.49998C15.5517 6.19117 15.4982 5.87891 15.1189 5.86667L11.4105 5.87853L13.0185 8.56369L14.1416 8.55987L15.3413 6.50036V6.49998Z" fill="white"/>
<path fill-rule="evenodd" clip-rule="evenodd" d="M11.1052 8.5258L10.5117 9.53183L11.6845 11.6032C11.8755 11.9736 12.1808 11.9706 12.4036 11.5837L14.1688 8.53116L11.1056 8.52542L11.1052 8.5258Z" fill="white"/>
<path fill-rule="evenodd" clip-rule="evenodd" d="M5.17845 13.4021C5.3671 12.8702 5.28942 12.2656 3.89269 12.5143C3.41589 12.6223 2.85682 13.0137 2.97621 13.7825C3.16754 14.2987 3.35887 14.4254 4.10239 14.7066C4.28339 14.7885 4.66147 14.8968 4.51758 15.2022C4.41427 15.4215 3.80506 15.4972 3.11588 15.1505L2.93335 15.9426C3.43732 16.1615 3.98071 16.2193 4.56657 16.0995C5.41455 15.8868 5.57604 15.1957 5.50677 14.8245C5.46736 14.425 5.11339 14.1131 4.5306 13.9107C4.35725 13.8502 4.16209 13.776 3.96348 13.6237C3.78325 13.1071 4.68519 13.1832 5.17883 13.4021H5.17845Z" fill="white"/>
<path fill-rule="evenodd" clip-rule="evenodd" d="M5.99237 12.4967L6.2036 12.5078C6.45999 12.5212 6.94789 12.5736 6.94789 12.9854V16.0842H5.99275V12.4963L5.99237 12.4967Z" fill="white"/>
<path fill-rule="evenodd" clip-rule="evenodd" d="M12.1831 12.4122C13.1581 12.4122 13.9533 13.2567 13.9533 14.2922C13.9533 15.3277 13.1581 16.1722 12.1831 16.1722C11.2081 16.1722 10.4129 15.3277 10.4129 14.2922C10.4129 13.2567 11.2081 12.4122 12.1831 12.4122ZM12.1732 13.1725C12.6029 13.1725 12.9534 13.6757 12.9534 14.2926C12.9534 14.9094 12.6029 15.4126 12.1732 15.4126C11.7434 15.4126 11.3929 14.9094 11.3929 14.2926C11.3929 13.6757 11.7434 13.1725 12.1732 13.1725Z" fill="white"/>
<path fill-rule="evenodd" clip-rule="evenodd" d="M16.0435 12.4122C17.0185 12.4122 17.8137 13.2567 17.8137 14.2922C17.8137 15.3277 17.0185 16.1722 16.0435 16.1722C15.0684 16.1722 14.2733 15.3277 14.2733 14.2922C14.2733 13.2567 15.0684 12.4122 16.0435 12.4122ZM16.0335 13.1725C16.4632 13.1725 16.8138 13.6757 16.8138 14.2926C16.8138 14.9094 16.4632 15.4126 16.0335 15.4126C15.6038 15.4126 15.2533 14.9094 15.2533 14.2926C15.2533 13.6757 15.6038 13.1725 16.0335 13.1725Z" fill="white"/>
<path fill-rule="evenodd" clip-rule="evenodd" d="M10.1022 15.2622L10.2576 16.0065C9.14479 16.3739 8.31402 16.1343 7.75227 15.4505C7.32024 14.7782 7.35621 14.1674 7.56055 13.5743C7.76068 13.1029 8.11656 12.7707 8.63354 12.5828C9.51788 12.282 10.4987 12.4665 10.1355 13.352C9.58064 13.1492 8.72194 13.161 8.53597 13.8073C8.2792 14.2884 8.52449 14.9683 8.75829 15.1402C9.2064 15.4203 9.6545 15.4329 10.1022 15.2622Z" fill="white"/>
<path fill-rule="evenodd" clip-rule="evenodd" d="M18.2162 12.5817L18.2239 16.0808C18.9751 16.2193 19.6853 16.1937 20.3542 16.0039C20.8926 15.7551 21.095 15.3836 21.0541 14.958C21.0235 14.5784 20.7977 14.3121 20.3772 14.1583C20.8547 13.9268 21.0533 13.6026 20.9156 13.166C20.7644 12.6865 20.2643 12.4535 19.4159 12.4661C19.016 12.4776 18.6161 12.5086 18.2162 12.5813V12.5817ZM19.194 13.1924V13.8824C19.5472 13.9424 20.0106 13.8724 19.9842 13.5223C20.001 13.2223 19.6673 13.1121 19.194 13.1924ZM19.1836 14.5888V15.4486C19.5724 15.5232 20.0817 15.436 20.0527 14.9998C20.071 14.6259 19.7044 14.4889 19.1836 14.5884V14.5888Z" fill="white"/>
</g>
<defs>
<clipPath id="clip0_4511_2829">
<rect width="24" height="24" fill="white"/>
</clipPath>
</defs>
</svg>
