<svg width="24" height="24" viewBox="0 0 24 24" fill="none" xmlns="http://www.w3.org/2000/svg">
<rect width="24" height="24" rx="12" fill="#808080"/>
<path d="M16.8272 10.5858V12.1016C16.8272 13.5463 16.8331 13.8277 16.863 13.8675C16.8691 13.8735 16.8769 13.8978 16.882 13.921C16.8995 14.0126 16.9806 14.1462 17.073 14.2366C17.1218 14.2856 17.1773 14.329 17.1948 14.3338C17.213 14.3376 17.2267 14.3442 17.2272 14.3491C17.2272 14.3539 17.2707 14.3713 17.3244 14.3884C17.4045 14.413 17.4473 14.4179 17.5724 14.4179C17.6596 14.4179 17.7355 14.4121 17.7534 14.4048C17.7695 14.3963 17.8082 14.3839 17.8394 14.3753C17.8707 14.3668 17.9271 14.3409 17.9645 14.3163C18.0346 14.2724 18.1645 14.1547 18.1645 14.1351C18.165 14.1286 18.1829 14.1024 18.2025 14.0772C18.2234 14.0506 18.24 14.0238 18.2405 14.016C18.2405 14.0086 18.2515 13.9826 18.264 13.9581C18.2777 13.9337 18.2925 13.8921 18.2975 13.8664C18.3012 13.8395 18.3101 13.8125 18.3165 13.8063C18.3476 13.7664 18.3522 13.5173 18.3522 12.0863V10.5858H19.8158V15.451H19.1231C18.5817 15.451 18.4267 15.4468 18.4193 15.4346C18.4142 15.4273 18.4073 15.3112 18.4047 15.178C18.4022 15.0461 18.3962 14.9377 18.3913 14.9377C18.3863 14.9378 18.3715 14.9522 18.3567 14.9705C18.2866 15.0634 18.1762 15.1686 18.0036 15.3079C17.9786 15.3274 17.9273 15.3547 17.8148 15.4084C17.7636 15.4328 17.7072 15.461 17.6897 15.4696C17.672 15.4781 17.6248 15.4916 17.5836 15.5001C17.5424 15.5087 17.5057 15.5192 17.502 15.5242C17.4893 15.5424 17.2681 15.5613 17.0495 15.5613C16.8348 15.5613 16.6598 15.5461 16.6082 15.5253C16.5945 15.5193 16.547 15.5045 16.5021 15.4936C16.4578 15.4828 16.4166 15.4681 16.4082 15.463C16.4021 15.4581 16.3712 15.4454 16.3423 15.4368C16.3126 15.4295 16.2887 15.4188 16.2887 15.4139C16.2878 15.4089 16.2663 15.3982 16.2395 15.3898C16.2121 15.3813 16.1893 15.3696 16.1893 15.3647C16.1886 15.3599 16.1749 15.35 16.1591 15.3429C16.0516 15.2952 15.8082 15.0721 15.7055 14.9279C15.643 14.84 15.5457 14.6641 15.5256 14.5992C15.5182 14.5735 15.5031 14.5347 15.4944 14.5151C15.4856 14.4941 15.4706 14.4507 15.4631 14.4179C15.4556 14.3838 15.4448 14.3482 15.4385 14.336C15.4324 14.3249 15.4213 14.267 15.4139 14.2071C15.4064 14.1486 15.3923 14.0884 15.3849 14.075C15.3737 14.0518 15.3683 13.613 15.3659 12.3179L15.3625 10.5858H16.8272Z" fill="white"/>
<path fill-rule="evenodd" clip-rule="evenodd" d="M12.6689 10.469C12.8438 10.4788 13.0417 10.5006 13.0566 10.5116C13.0642 10.5164 13.0936 10.5254 13.1247 10.529C13.1961 10.5401 13.3706 10.5902 13.4755 10.6317C13.5629 10.6659 13.7558 10.7606 13.7872 10.7857C13.7973 10.793 13.82 10.8077 13.8375 10.8152C13.855 10.8237 13.9107 10.8663 13.9593 10.908C14.0073 10.95 14.0514 10.9865 14.0587 10.9899C14.0775 10.9984 14.2982 11.2606 14.3 11.2771C14.3 11.2808 14.312 11.3004 14.3257 11.3186C14.352 11.3554 14.4632 11.5672 14.4632 11.5807C14.4634 11.5859 14.4731 11.613 14.4866 11.6408C14.4991 11.669 14.514 11.7116 14.519 11.7347C14.524 11.7578 14.5331 11.7818 14.538 11.7893C14.543 11.7955 14.5549 11.8351 14.5637 11.8756C14.5712 11.9157 14.5812 11.9577 14.5849 11.9673C14.5901 11.9785 14.6007 12.0302 14.6106 12.0831C14.6256 12.1639 14.6291 12.4685 14.6341 13.8151L14.6397 15.451H13.2755L13.2733 15.3068C13.272 15.2287 13.2683 15.1145 13.2633 15.0546L13.2566 14.9443L13.2197 14.9934C13.1623 15.068 12.9743 15.2434 12.899 15.2927C12.7351 15.3979 12.6905 15.4242 12.6454 15.439C12.618 15.4463 12.5824 15.4611 12.565 15.4707C12.5462 15.4793 12.4998 15.4939 12.4622 15.5012C12.4247 15.5098 12.387 15.5205 12.3806 15.5253C12.3162 15.5716 11.5295 15.5705 11.4679 15.5242C11.4617 15.5193 11.4162 15.5087 11.3673 15.5001C11.3199 15.4916 11.2634 15.4772 11.2422 15.4674C11.2218 15.4587 11.1681 15.4374 11.1249 15.4204C11.0747 15.3991 11.0254 15.3753 10.9774 15.3494C10.9443 15.3295 10.9111 15.3097 10.8769 15.2916C10.8243 15.2634 10.806 15.2475 10.6635 15.1081C10.5174 14.9654 10.4981 14.9457 10.4981 14.9323C10.4976 14.9267 10.4818 14.8998 10.4635 14.8722C10.4434 14.8441 10.4149 14.7927 10.3998 14.7597C10.3849 14.7257 10.365 14.6851 10.3562 14.668C10.3464 14.6508 10.3326 14.6074 10.3238 14.5708C10.3151 14.5341 10.3032 14.4972 10.2981 14.4911C10.2843 14.4726 10.2613 14.3 10.2613 14.2246C10.2613 14.1893 10.2553 14.1532 10.2479 14.146C10.2328 14.1312 10.2359 14.0824 10.2747 13.7878C10.2821 13.731 10.2931 13.6787 10.2981 13.672C10.3032 13.6647 10.3152 13.6329 10.3227 13.5999C10.3389 13.5365 10.3727 13.4537 10.4076 13.3914C10.4188 13.3706 10.4335 13.3417 10.4411 13.3269C10.4485 13.3115 10.4585 13.3 10.4646 13.2996C10.4696 13.2996 10.4735 13.2918 10.4735 13.2832C10.4745 13.2687 10.6118 13.0948 10.6355 13.079C10.6406 13.075 10.6487 13.0626 10.6523 13.0506C10.6574 13.0375 10.6723 13.026 10.6858 13.0222C10.6995 13.0186 10.7114 13.0108 10.7115 13.0059C10.7115 12.9937 10.9218 12.8321 10.9931 12.7918C11.0445 12.7612 11.16 12.704 11.3271 12.6258C11.3528 12.6131 11.5847 12.5403 11.6869 12.5122C11.7242 12.5013 11.7976 12.4868 11.8488 12.4795C11.9001 12.4709 11.9498 12.4602 11.9561 12.4555C11.9659 12.4504 12.04 12.4397 12.1248 12.4325C12.2108 12.4252 12.3164 12.4125 12.3617 12.4063C12.539 12.3807 13.1618 12.386 13.2297 12.4129C13.2523 12.4225 13.2541 12.4175 13.2454 12.3135C13.2405 12.2538 13.2314 12.2025 13.2264 12.1988C13.2201 12.1952 13.2124 12.172 13.2074 12.1475C13.1985 12.1022 13.1506 12.0029 13.1057 11.9356C13.0763 11.8927 12.9577 11.7723 12.9426 11.7707C12.9378 11.7707 12.9159 11.7593 12.8946 11.7434C12.8396 11.7043 12.7507 11.6648 12.6968 11.655C12.6707 11.65 12.6499 11.6413 12.6499 11.6364C12.6472 11.583 11.8426 11.5742 11.5997 11.6266C11.5684 11.6326 11.4953 11.6462 11.4366 11.6561C11.3777 11.6657 11.3185 11.6793 11.3048 11.6855C11.2905 11.6916 11.2462 11.7024 11.2053 11.7096C11.1641 11.7169 11.1186 11.7286 11.1048 11.7347C11.0905 11.7409 11.0412 11.7544 10.9942 11.7653C10.9467 11.7762 10.9011 11.7886 10.8936 11.7948C10.8856 11.7998 10.8522 11.8114 10.8177 11.8199C10.784 11.8284 10.7491 11.8412 10.7428 11.8461C10.7354 11.851 10.7017 11.8615 10.6679 11.8701C10.6331 11.8774 10.5834 11.895 10.5585 11.9072C10.5323 11.9206 10.5085 11.9302 10.5048 11.9302C10.5011 11.928 10.4981 11.6735 10.4981 11.3634C10.4981 10.9231 10.5025 10.7939 10.5149 10.7835C10.5236 10.7762 10.5584 10.7637 10.592 10.7551C10.627 10.7478 10.6618 10.7371 10.6679 10.7322L10.8556 10.671L11.0355 10.6208C11.0476 10.6158 11.0987 10.6021 11.1495 10.5913C11.1891 10.5837 11.2287 10.5757 11.2679 10.5662C11.2815 10.5624 11.3518 10.5509 11.4243 10.5411C11.4969 10.5314 11.5731 10.5177 11.593 10.5116C11.6669 10.4896 12.3215 10.4495 12.4689 10.4581C12.5103 10.4604 12.6004 10.4653 12.6689 10.469ZM12.5058 13.2887C12.4447 13.2948 12.3821 13.3045 12.3684 13.3105C12.3545 13.318 12.3091 13.3282 12.2678 13.3368C12.2279 13.3441 12.1743 13.3597 12.1494 13.3706C11.962 13.4499 11.871 13.5026 11.8086 13.5661C11.7486 13.6273 11.6878 13.7409 11.6779 13.8118C11.6753 13.836 11.6663 13.8672 11.6589 13.8806C11.6451 13.9088 11.6509 13.9963 11.6734 14.1099C11.6985 14.2334 11.7982 14.3837 11.8868 14.4288C12.0442 14.5081 12.0744 14.5202 12.1617 14.5337C12.319 14.5568 12.6191 14.5438 12.6845 14.5096C12.6957 14.5035 12.7424 14.4822 12.7873 14.4627C12.8324 14.4419 12.8916 14.4092 12.9192 14.3884C12.9464 14.3679 12.9769 14.3436 12.9884 14.3349C13.0596 14.2824 13.191 14.0691 13.2085 13.9811C13.2122 13.9594 13.2223 13.9343 13.2297 13.9243C13.2385 13.9133 13.245 13.8004 13.2476 13.5989L13.2521 13.2909L13.1851 13.2832C13.0937 13.2722 12.6435 13.2765 12.5058 13.2887Z" fill="white"/>
<path d="M8.52287 9.85306V10.5858H9.77305V11.6735H8.52175L8.52622 12.8071C8.53008 14.0279 8.52782 13.9684 8.59549 14.1187C8.64682 14.2346 8.79136 14.3523 8.91613 14.3819C8.93739 14.3868 8.96195 14.3974 8.97199 14.4048C8.99989 14.4228 9.50258 14.422 9.52502 14.4026C9.53599 14.3954 9.58018 14.3856 9.62669 14.3808L9.71048 14.372V15.4444L9.67696 15.4597C9.64555 15.4732 9.50188 15.4945 9.30493 15.5176C9.02429 15.5494 8.51291 15.5535 8.48042 15.5231C8.47294 15.5171 8.4523 15.5122 8.43349 15.5122C8.38395 15.5119 8.18293 15.4751 8.16759 15.4641C8.16015 15.4593 8.12651 15.4474 8.09162 15.4401C8.05791 15.4315 8.02325 15.4197 8.01565 15.415C8.00862 15.4088 7.98096 15.3982 7.9542 15.3898C7.927 15.3814 7.90146 15.3707 7.89722 15.3669C7.89349 15.3633 7.87078 15.3498 7.84695 15.3363C7.74318 15.2826 7.71215 15.2627 7.65702 15.2173C7.6252 15.1921 7.59589 15.17 7.58887 15.1692C7.57637 15.1679 7.48059 15.0666 7.40564 14.9738C7.34819 14.9016 7.26352 14.7641 7.23471 14.6931C7.22489 14.6705 7.2141 14.6483 7.21013 14.644C7.20513 14.6403 7.19241 14.6026 7.17997 14.5588C7.16863 14.5149 7.15276 14.4674 7.14645 14.4539C7.14015 14.4395 7.12602 14.3855 7.11628 14.3327C7.10571 14.2817 7.09361 14.2305 7.08165 14.1798C7.07289 14.1432 7.06751 13.7126 7.06377 12.8988L7.05819 11.6735H6.33423V10.5858H7.0593V9.35289L7.14421 9.34416C7.18932 9.33949 7.23235 9.33164 7.2403 9.32668C7.24777 9.32177 7.31007 9.31017 7.37883 9.30156C7.44741 9.29304 7.51008 9.28118 7.51625 9.27645C7.52437 9.27149 7.60235 9.25781 7.69054 9.24696C7.77992 9.23467 7.85883 9.22138 7.86594 9.21638C7.87341 9.21147 7.91488 9.20256 7.95979 9.19891C8.01856 9.19202 8.07724 9.18341 8.13519 9.17161C8.26902 9.14466 8.50272 9.10861 8.51393 9.11482C8.51895 9.11785 8.52287 9.45019 8.52287 9.85306Z" fill="white"/>
<path d="M5.77114 10.5858V15.451H4.3087V10.5858H5.77114Z" fill="white"/>
<path d="M4.90194 8.44101C4.97572 8.43371 5.2354 8.44522 5.25163 8.4563C5.26002 8.46237 5.29555 8.47307 5.33096 8.48142C5.39841 8.49725 5.49336 8.53998 5.56446 8.58626C5.62062 8.62282 5.75351 8.76192 5.78008 8.81123C5.79263 8.83544 5.80637 8.85752 5.81025 8.86146C5.81415 8.86511 5.82478 8.89021 5.83483 8.91716C5.84358 8.94388 5.8553 8.97232 5.86164 8.97831C5.87777 9.0028 5.89627 9.14752 5.89627 9.25461C5.89623 9.35925 5.88048 9.48206 5.8594 9.52762C5.79193 9.67917 5.75894 9.72996 5.67395 9.81811C5.59518 9.89745 5.56245 9.92183 5.45497 9.97319C5.36744 10.0159 5.30491 10.0383 5.25499 10.0431C5.21517 10.048 5.17976 10.0556 5.17566 10.0606C5.16694 10.0753 4.89636 10.0753 4.89636 10.0606C4.895 10.0556 4.86387 10.0479 4.82485 10.0431C4.78612 10.0383 4.73662 10.0265 4.71537 10.018C4.68855 10.0062 4.66139 9.99516 4.63381 9.9852C4.61046 9.97685 4.58793 9.96718 4.58353 9.96336C4.57981 9.95851 4.56111 9.94694 4.53996 9.93715C4.46747 9.90176 4.31671 9.73918 4.27294 9.64993C4.24917 9.60235 4.22673 9.55583 4.22043 9.54619C4.17802 9.46252 4.17052 9.08369 4.21038 8.99579C4.22175 8.97245 4.23853 8.93383 4.24725 8.9106C4.256 8.88752 4.26586 8.86507 4.26959 8.86146C4.27374 8.85695 4.28853 8.83302 4.30199 8.80686C4.32568 8.7618 4.4726 8.60672 4.49527 8.60482C4.50026 8.60482 4.51221 8.59609 4.52097 8.58517C4.54523 8.55931 4.66638 8.50189 4.73994 8.48361C4.77466 8.47505 4.81318 8.46357 4.82709 8.4574C4.84085 8.4514 4.87453 8.44467 4.90194 8.44101Z" fill="white"/>
<path d="M18.8773 9.92514H16.4518V9.09844L16.587 9.07769C16.8857 9.03255 17.0718 9.002 17.0831 8.99469C17.0909 8.98977 17.152 8.98025 17.2205 8.97176C17.2879 8.96337 17.3497 8.95278 17.3579 8.94773C17.3655 8.94299 17.4247 8.93118 17.4897 8.92262C17.5547 8.9153 17.6398 8.90064 17.6774 8.89095C17.7148 8.88244 17.7931 8.86873 17.8517 8.86146C17.9105 8.854 17.9696 8.84349 17.9835 8.83853C17.9973 8.83252 18.0597 8.82088 18.121 8.81232C18.1834 8.80502 18.2534 8.79463 18.2774 8.7872C18.301 8.78116 18.3911 8.76358 18.4773 8.75007C18.5636 8.73661 18.6763 8.71937 18.7276 8.71076C18.7788 8.70093 18.8343 8.69345 18.8505 8.69219L18.8773 8.6911V9.92514Z" fill="white"/>
</svg>
