<svg width="24" height="24" viewBox="0 0 24 24" fill="none" xmlns="http://www.w3.org/2000/svg">
<g clip-path="url(#clip0_4575_8355)">
<circle cx="12" cy="12" r="12" fill="#E87437"/>
<path fill-rule="evenodd" clip-rule="evenodd" d="M16.2003 11.9038H18.115C17.9654 11.5144 17.6494 11.2353 17.1598 11.2353C16.731 11.2375 16.3542 11.4626 16.2003 11.9038ZM19.1373 12.3256V12.6198H16.1701C16.2242 13.1974 16.5859 13.5804 17.1447 13.5804C17.645 13.5804 18.0066 13.3142 18.0802 12.9855L19.135 12.9854C18.9141 13.8053 18.1605 14.4327 17.1294 14.4327C15.9275 14.4327 15.1111 13.5782 15.1111 12.4576C15.1111 11.337 15.8994 10.422 17.1555 10.422C18.3424 10.422 19.1373 11.2375 19.1373 12.3256Z" fill="white"/>
<path fill-rule="evenodd" clip-rule="evenodd" d="M20.6207 11.1705H20.5797V10.4826H19.5963V14.3677H20.6446V11.4105H21.5673V10.4219H21.4394C20.9543 10.4219 20.7399 10.6361 20.6207 11.1705Z" fill="white"/>
<path fill-rule="evenodd" clip-rule="evenodd" d="M7.67151 14.3678H8.66137V10.4825H7.67151V14.3678Z" fill="white"/>
<path fill-rule="evenodd" clip-rule="evenodd" d="M11.3598 10.422C10.8855 10.422 10.5303 10.6946 10.3571 11.1229H10.3246V10.4826H9.38245V14.3678H10.3722V11.3564H11.0328C11.3208 11.3564 11.427 11.4171 11.427 11.7242V14.3678H12.4167V11.5317C12.4146 10.7507 12.0399 10.4219 11.3598 10.4219V10.422Z" fill="white"/>
<path fill-rule="evenodd" clip-rule="evenodd" d="M14.1928 13.5134H14.9876V14.3679H14.3271C13.6317 14.3679 13.2051 14.1277 13.2051 13.2473V11.3393H12.733C12.6506 11.3393 12.6073 11.2398 12.6637 11.1792L14.0303 9.63022C14.0887 9.56757 14.1949 9.6086 14.1949 9.6952V10.4847H14.9832V11.3393H14.1949V13.5133L14.1928 13.5134Z" fill="white"/>
<path fill-rule="evenodd" clip-rule="evenodd" d="M2.48889 14.2013H4.5226L4.53342 14.145L2.52788 13.7297L2.56686 13.5069L4.57241 13.9395L4.58975 13.8616L2.69464 13.0396L2.77691 12.8125L4.67633 13.6107L4.71531 13.5544L3.03258 12.3061L3.20574 12.0337L4.87777 13.2818L4.92757 13.2148L3.61083 11.5446L3.93353 11.283L5.23945 12.8751L5.29577 12.8254L4.53552 10.8936L4.99693 10.6989L5.71378 12.5917L5.77011 12.5744V10.4761H6.50638V14.3613H2.48889V14.2013Z" fill="white"/>
</g>
<defs>
<clipPath id="clip0_4575_8355">
<rect width="24" height="24" fill="white"/>
</clipPath>
</defs>
</svg>
