<svg width="24" height="24" viewBox="0 0 24 24" fill="none" xmlns="http://www.w3.org/2000/svg">
<g clip-path="url(#clip0_4511_2841)">
<circle cx="12" cy="12" r="12" fill="#808080"/>
<path d="M13.7703 7.53087C13.7687 7.8668 13.681 8.03559 13.5737 8.0487C13.5032 8.05689 13.4213 7.99872 13.3475 7.87663C13.105 7.47844 12.8395 7.09908 12.5577 6.72628C12.5577 6.72628 12.5577 6.72464 12.5577 6.72382C12.6667 6.13554 12.842 5.53578 13.1419 5.01468C13.5163 5.76929 13.7752 6.69105 13.7703 7.53087ZM12.3643 7.51121C12.629 7.748 12.7019 7.93809 12.6421 8.04132C12.6036 8.10933 12.5069 8.14128 12.3652 8.12408C11.8908 8.06836 11.4172 8.04624 10.9379 8.04296C10.9379 8.04296 10.937 8.04132 10.9362 8.0405C10.4839 7.5022 10.0751 6.89588 9.81209 6.24123C10.7084 6.45344 11.6785 6.8967 12.3635 7.51121M11.4606 8.73858C11.8146 8.66402 12.0079 8.72547 12.0513 8.84182C12.08 8.91884 12.0448 9.02125 11.944 9.13023C11.613 9.49155 11.309 9.87173 11.0182 10.2667H11.0157C10.3029 10.3191 9.56055 10.2904 8.86493 10.1167C9.57366 9.48828 10.5356 8.93358 11.4614 8.73858M11.8645 10.2527C12.0194 9.92335 12.1841 9.79963 12.298 9.83404C12.3725 9.85698 12.4274 9.94711 12.4471 10.0921C12.511 10.5501 12.6028 11 12.715 11.4498C12.715 11.4498 12.7142 11.4514 12.7134 11.4514C12.325 12.002 11.9088 12.5321 11.3869 12.9639C11.3254 12.0741 11.4868 11.0557 11.8637 10.2527M13.2042 10.7927C13.0665 10.4912 13.0772 10.2871 13.1697 10.2167C13.2312 10.17 13.3287 10.179 13.4418 10.2462C13.7883 10.451 14.1464 10.6419 14.5208 10.7943C14.5208 10.7943 14.5208 10.7959 14.5208 10.7968C14.6552 11.3597 14.7339 11.9504 14.6995 12.5305C14.0759 12.1216 13.5098 11.4645 13.2033 10.7935M14.384 10.0503C14.0989 9.98726 13.962 9.85944 13.9711 9.74309C13.9768 9.66689 14.0432 9.59315 14.1595 9.54153C14.5184 9.38258 14.8723 9.20724 15.2058 8.99749C15.2058 8.99749 15.2066 8.99749 15.2074 8.99831C15.6491 9.22363 16.0735 9.5104 16.4152 9.87255C15.7941 10.1143 15.0256 10.1921 14.3832 10.0503M14.6175 8.65091C14.3914 8.84837 14.2177 8.88197 14.1415 8.80167C14.0915 8.74923 14.0817 8.64763 14.1194 8.51572C14.239 8.09868 14.3324 7.67754 14.4094 7.24984C14.4094 7.24984 14.411 7.24984 14.411 7.24902C14.8666 7.03599 15.3238 6.84017 15.8293 6.78773C15.5901 7.47024 15.1575 8.17815 14.6175 8.65091Z" fill="white"/>
<path d="M13.1411 5.01551C12.842 5.53661 12.6667 6.13636 12.5577 6.72465C12.5577 6.72465 12.5577 6.72629 12.5577 6.72711C12.4823 6.62961 12.3832 6.51162 12.2963 6.40429C11.9694 5.99708 11.6081 5.61608 11.2426 5.24246C11.8424 5.00158 12.502 4.92292 13.1419 5.01551M8.82477 8.2052C9.38438 8.13637 9.94645 8.0741 10.5028 8.05526C10.647 8.05034 10.81 8.04297 10.9387 8.04297C10.9387 8.04297 10.9378 8.04133 10.937 8.04051C10.4848 7.5022 10.0759 6.89589 9.81289 6.24206C9.31391 6.79348 8.97307 7.47762 8.82477 8.2052ZM9.92678 12.0299C10.1898 11.5506 10.4667 11.0753 10.7707 10.628C10.851 10.5092 10.9419 10.3724 11.0181 10.2675C11.0173 10.2675 11.0165 10.2675 11.0157 10.2675C10.3029 10.3199 9.56054 10.2912 8.86492 10.1175C9.04271 10.8353 9.40814 11.503 9.9276 12.0307M13.2844 13.1122C13.1148 12.6854 12.9526 12.256 12.8232 11.8226C12.7871 11.7021 12.7445 11.562 12.7158 11.449C12.7158 11.449 12.715 11.4506 12.7142 11.4506C12.3266 12.0012 11.9104 12.5313 11.3877 12.9623C12.0177 13.1466 12.6306 13.2335 13.2844 13.1114M15.9014 11.2474C15.5376 11.1556 15.1755 11.0508 14.8273 10.9131C14.7281 10.8738 14.6126 10.8328 14.5216 10.7935C14.5216 10.7935 14.5216 10.7951 14.5216 10.796C14.656 11.3588 14.7347 11.9496 14.7003 12.5289C15.1902 12.1978 15.6007 11.7562 15.9014 11.2466M16.3889 8.14539C16.0972 8.38545 15.7965 8.61815 15.4795 8.82134C15.391 8.87788 15.2902 8.9467 15.2058 8.9975C15.2058 8.9975 15.2066 8.9975 15.2074 8.99832C15.6491 9.22364 16.0735 9.50959 16.4151 9.87256C16.4963 9.27362 16.4897 8.74105 16.3889 8.14539ZM14.5839 5.54562C14.5569 5.99462 14.5249 6.44362 14.4643 6.88278C14.4479 7.00159 14.4291 7.14088 14.4102 7.24985H14.4119C14.8674 7.03682 15.3246 6.841 15.8301 6.78856C15.513 6.28876 15.087 5.85943 14.5839 5.54644" fill="white"/>
<path d="M19.3787 13.4391L18.8068 17.4752H18.0801V17.0238C17.7195 17.3679 17.3459 17.5424 16.9666 17.5424C16.7003 17.5424 16.5036 17.4654 16.3652 17.3073C16.1513 17.0631 16.0882 16.6321 16.1734 15.9889C16.3406 14.7837 16.7904 14.542 17.4623 14.542C17.7277 14.542 18.0317 14.5657 18.3021 14.6059L18.4676 13.4391H19.3804H19.3787ZM17.8105 15.2073C17.3041 15.2073 17.196 15.272 17.096 16.0111C17.0444 16.3904 17.0297 16.6264 17.105 16.7124C17.1362 16.7476 17.1886 16.7632 17.2689 16.7591C17.5458 16.7534 17.7654 16.6075 18.0489 16.3568L18.2095 15.2065H17.8105V15.2073ZM9.59497 14.5428C9.07878 14.5428 8.72565 14.6501 8.48312 14.8804C8.24387 15.1081 8.10213 15.4547 8.02429 16.007C7.94645 16.5551 8.01282 16.9418 8.22749 17.1893C8.43478 17.4277 8.78546 17.544 9.30164 17.544C9.55482 17.544 9.92762 17.5211 10.2627 17.4105L10.2865 17.4031L10.3807 16.7288L10.3201 16.7386C10.0866 16.7722 9.79325 16.7886 9.44748 16.7886C9.20824 16.7886 9.08943 16.7591 9.02307 16.6837C8.94031 16.5903 8.92556 16.4084 8.96981 16.0561C9.04928 15.4031 9.25248 15.2974 9.70722 15.2974C9.89157 15.2974 10.5798 15.3089 10.5798 15.3089L10.6691 14.669C10.6691 14.669 10.2832 14.542 9.59497 14.542M15.7826 14.8599C15.9211 15.0197 15.9678 15.2442 15.9252 15.5449C15.8367 16.152 15.4106 16.3036 14.7519 16.3503L13.9686 16.4093C13.9899 16.7386 14.1611 16.8001 14.484 16.8001C14.7625 16.8001 15.4336 16.7673 15.5434 16.7394L15.5876 16.728L15.5925 16.773C15.6196 17.0115 15.6991 17.2745 15.6999 17.2778L15.7105 17.3122L15.6777 17.3261C15.3213 17.4752 14.7601 17.544 14.3889 17.544C13.8629 17.544 13.5008 17.4244 13.2828 17.1794C13.0608 16.9295 12.9838 16.5387 13.0493 15.9857C13.1804 14.9074 13.5966 14.5436 14.6986 14.5436C15.2435 14.5436 15.5983 14.6477 15.7834 14.8607M14.6216 15.7808C14.8871 15.7595 15.0108 15.7079 15.0419 15.4555C15.0493 15.3679 15.0403 15.3138 15.0124 15.2835C14.9707 15.2384 14.8732 15.2294 14.7281 15.2294C14.7011 15.2294 14.6732 15.2294 14.6429 15.2302C14.216 15.2302 14.1104 15.3761 14.0268 15.8382L14.6216 15.7816V15.7808ZM13.1501 14.6215H12.9739C12.6396 14.6215 12.3127 14.787 11.8916 15.1721V14.6215H11.1697L10.7707 17.4752H11.6843L11.9055 15.8341C12.0202 15.6874 12.3406 15.5145 12.5782 15.5145H12.7732L12.7797 15.4834C12.7797 15.4834 12.8625 15.1131 13.1149 14.6813L13.1501 14.6215ZM3.56216 14.492C3.48596 15.0811 3.69162 15.4293 4.25041 15.6563L4.98863 15.9504C5.22297 16.0365 5.27458 16.0799 5.24427 16.3118C5.19838 16.6108 5.08204 16.6911 4.56585 16.6911H3.31144L3.20001 17.4752H4.60272C5.6949 17.4752 6.06197 17.2179 6.17258 16.3732C6.24058 15.8398 6.14882 15.4572 5.47778 15.1975L4.7797 14.932C4.50932 14.8312 4.45934 14.7902 4.49539 14.5543C4.53636 14.2904 4.63386 14.2331 4.83624 14.2192H6.33317L6.4446 13.435H5.10908C4.19961 13.435 3.68424 13.6038 3.56134 14.4936M6.45197 17.4752H7.35981L7.75964 14.6215H6.85181L6.45197 17.4752ZM7.81618 14.2175L7.92597 13.4334H7.01814L6.90835 14.2175H7.81618ZM19.3631 17.4752H20.271L20.6708 14.6215H19.763L19.3631 17.4752ZM20.7265 14.2175L20.8363 13.4334H19.9285L19.8187 14.2175H20.7265Z" fill="white"/>
</g>
<defs>
<clipPath id="clip0_4511_2841">
<rect width="24" height="24" fill="white"/>
</clipPath>
</defs>
</svg>
